<svg xmlns="http://www.w3.org/2000/svg" width="19.03" height="18.024" viewBox="0 0 19.03 18.024">
  <g id="cart" transform="translate(0.257 0.257)">
    <path id="Path_231" data-name="Path 231" d="M98.159,322.332a2.206,2.206,0,1,0,2.206,2.206A2.206,2.206,0,0,0,98.159,322.332Zm0,3.6a1.395,1.395,0,1,1,1.395-1.395A1.395,1.395,0,0,1,98.159,325.933Zm0,0" transform="translate(-92.062 -309.277)" fill="#333" stroke="#333" stroke-width="0.6"/>
    <path id="Path_232" data-name="Path 232" d="M18.115,4.176H3.8L3.506,2.542A2.437,2.437,0,0,0,1.531.571L.473.385a.406.406,0,1,0-.142.8l1.062.186A1.622,1.622,0,0,1,2.707,2.684l1.435,8.1a2.023,2.023,0,0,0,1.995,1.675h8.515a2.022,2.022,0,0,0,1.942-1.439L18.5,4.7a.424.424,0,0,0-.061-.361.411.411,0,0,0-.324-.162Zm-2.3,6.6a1.208,1.208,0,0,1-1.164.864H6.141a1.21,1.21,0,0,1-1.2-1.006l-1-5.652H17.572Zm0,0" transform="translate(0.004 -0.379)" fill="#333" stroke="#333" stroke-width="0.5"/>
    <path id="Path_233" data-name="Path 233" d="M308.159,322.332a2.206,2.206,0,1,0,2.206,2.206A2.206,2.206,0,0,0,308.159,322.332Zm0,3.6a1.395,1.395,0,1,1,1.395-1.395A1.395,1.395,0,0,1,308.159,325.933Zm0,0" transform="translate(-293.547 -309.277)" fill="#333" stroke="#333" stroke-width="0.6"/>
  </g>
</svg>
