<svg xmlns="http://www.w3.org/2000/svg" width="165" height="35.301" viewBox="0 0 165 35.301">
  <g id="Logo-Maynooth-Option3" transform="translate(2.863 2.863)">
    <rect id="Rectangle_11" data-name="Rectangle 11" width="9.789" height="32.49" rx="4.895" transform="translate(7.773 -0.408) rotate(-9.643)" fill="#fff"/>
    <rect id="Rectangle_12" data-name="Rectangle 12" width="9.789" height="32.49" rx="4.895" transform="translate(21.406 -0.408) rotate(-9.643)" fill="#fff"/>
    <rect id="Rectangle_13" data-name="Rectangle 13" width="9.789" height="34.262" rx="4.895" transform="translate(10.95 -2.863) rotate(23.775)" fill="#fff"/>
    <rect id="Rectangle_14" data-name="Rectangle 14" width="9.789" height="34.262" rx="4.895" transform="translate(24.548 -2.863) rotate(23.775)" fill="#fff"/>
    <rect id="Rectangle_15" data-name="Rectangle 15" width="9.789" height="34.262" rx="4.895" transform="translate(38.169 -2.863) rotate(23.775)" fill="#fff"/>
    <g id="Group_3" data-name="Group 3" transform="translate(52.738 8.213)">
      <path id="Path_17" data-name="Path 17" d="M100.489,18.278a.325.325,0,0,1,.345-.324h.243a.4.4,0,0,1,.406.264l4.013,8.655c.324.689.689,1.6.689,1.6h.04s.365-.912.689-1.6l4.013-8.655a.4.4,0,0,1,.405-.264h.244a.325.325,0,0,1,.344.324l1.095,13.5c0,.243-.1.365-.345.365h-.182a.325.325,0,0,1-.345-.325l-.851-10.5c-.061-.689-.061-1.885-.061-1.885h-.041s-.405,1.2-.73,1.885l-3.689,7.824a.4.4,0,0,1-.406.264h-.324a.4.4,0,0,1-.406-.264l-3.669-7.824c-.3-.669-.75-1.925-.75-1.925h-.041s0,1.236-.061,1.925l-.851,10.5a.325.325,0,0,1-.345.325h-.182c-.244,0-.345-.122-.345-.365Z" transform="translate(-99.394 -17.711)" fill="#fff"/>
      <path id="Path_18" data-name="Path 18" d="M133.212,18.238a.368.368,0,0,1,.386-.284h.365a.368.368,0,0,1,.385.284l5.067,13.5c.081.243-.02.405-.284.405h-.223a.372.372,0,0,1-.385-.263l-1.743-4.642h-6.02l-1.723,4.622a.368.368,0,0,1-.385.283h-.223c-.264,0-.365-.162-.284-.405Zm3.263,8.189-2.149-5.757c-.223-.608-.527-1.7-.527-1.7h-.041s-.3,1.095-.527,1.7l-2.168,5.757Z" transform="translate(-112.5 -17.711)" fill="#fff"/>
      <path id="Path_19" data-name="Path 19" d="M153.494,25.981l-4.581-7.622c-.142-.223-.04-.405.243-.405h.244a.466.466,0,0,1,.405.223l3.223,5.371c.405.689.872,1.6.872,1.6h.04s.446-.912.872-1.6l3.223-5.371a.467.467,0,0,1,.406-.223h.243c.283,0,.385.182.243.405l-4.56,7.622V31.8a.31.31,0,0,1-.345.345h-.182a.31.31,0,0,1-.345-.345Z" transform="translate(-121.959 -17.711)" fill="#fff"/>
      <path id="Path_20" data-name="Path 20" d="M172.187,18.3a.31.31,0,0,1,.345-.345h.2a.481.481,0,0,1,.426.223l7.925,10.9c.467.649,1.155,1.783,1.155,1.783h.04s-.1-1.074-.1-1.783V18.3a.31.31,0,0,1,.345-.345h.182a.31.31,0,0,1,.344.345V31.8a.31.31,0,0,1-.344.345h-.2a.481.481,0,0,1-.426-.223l-7.925-10.9c-.466-.649-1.155-1.783-1.155-1.783h-.04s.1,1.074.1,1.783V31.8a.31.31,0,0,1-.344.345h-.183a.31.31,0,0,1-.345-.345Z" transform="translate(-132.607 -17.711)" fill="#fff"/>
      <path id="Path_21" data-name="Path 21" d="M205.3,17.507a7.088,7.088,0,0,1,7.175,7.236,7.18,7.18,0,1,1-14.351,0A7.088,7.088,0,0,1,205.3,17.507Zm0,13.843a6.312,6.312,0,0,0,6.263-6.607,6.265,6.265,0,1,0-12.526,0A6.313,6.313,0,0,0,205.3,31.35Z" transform="translate(-144.443 -17.507)" fill="#fff"/>
      <path id="Path_22" data-name="Path 22" d="M235.793,17.507a7.087,7.087,0,0,1,7.175,7.236,7.18,7.18,0,1,1-14.35,0A7.088,7.088,0,0,1,235.793,17.507Zm0,13.843a6.312,6.312,0,0,0,6.263-6.607,6.265,6.265,0,1,0-12.527,0A6.313,6.313,0,0,0,235.793,31.35Z" transform="translate(-158.354 -17.507)" fill="#fff"/>
      <path id="Path_23" data-name="Path 23" d="M260.93,18.765h-4.945a.31.31,0,0,1-.345-.344V18.3a.31.31,0,0,1,.345-.345h10.763a.31.31,0,0,1,.344.345v.122a.31.31,0,0,1-.344.344H261.8V31.8a.311.311,0,0,1-.345.345h-.183a.31.31,0,0,1-.345-.345Z" transform="translate(-170.684 -17.711)" fill="#fff"/>
      <path id="Path_24" data-name="Path 24" d="M280.837,18.3a.31.31,0,0,1,.345-.345h.182a.31.31,0,0,1,.345.345v6.324h9V18.3a.31.31,0,0,1,.344-.345h.183a.31.31,0,0,1,.345.345V31.8a.31.31,0,0,1-.345.345h-.183a.31.31,0,0,1-.344-.345V25.433h-9V31.8a.31.31,0,0,1-.345.345h-.182a.31.31,0,0,1-.345-.345Z" transform="translate(-182.18 -17.711)" fill="#fff"/>
    </g>
  </g>
</svg>
