<svg xmlns="http://www.w3.org/2000/svg" width="135.769" height="29.047" viewBox="0 0 135.769 29.047">
  <g id="Logo" transform="translate(-82 289)">
    <rect id="Rectangle_49" data-name="Rectangle 49" width="8.055" height="26.734" rx="4.027" transform="translate(90.751 -286.98) rotate(-9.643)" fill="#a6281c"/>
    <rect id="Rectangle_50" data-name="Rectangle 50" width="8.055" height="26.734" rx="4.027" transform="translate(101.97 -286.98) rotate(-9.643)" fill="#a6281c"/>
    <rect id="Rectangle_51" data-name="Rectangle 51" width="28.192" height="8.055" rx="4.027" transform="translate(82 -263.2) rotate(-66.225)" fill="#f29544"/>
    <rect id="Rectangle_52" data-name="Rectangle 52" width="28.192" height="8.055" rx="4.027" transform="translate(93.19 -263.2) rotate(-66.225)" fill="#f29544"/>
    <rect id="Rectangle_53" data-name="Rectangle 53" width="28.192" height="8.055" rx="4.027" transform="translate(104.397 -263.2) rotate(-66.225)" fill="#f29544"/>
    <g id="Group_6" data-name="Group 6" transform="translate(127.75 -279.886)">
      <path id="Path_9" data-name="Path 9" d="M100.295,18.221a.267.267,0,0,1,.284-.267h.2a.327.327,0,0,1,.334.217l3.3,7.121c.267.567.567,1.318.567,1.318h.033s.3-.751.567-1.318l3.3-7.121a.326.326,0,0,1,.333-.217h.2a.267.267,0,0,1,.283.267l.9,11.108c0,.2-.083.3-.284.3h-.15a.268.268,0,0,1-.284-.267l-.7-8.639c-.05-.567-.05-1.551-.05-1.551H109.1s-.333.984-.6,1.551l-3.035,6.438a.327.327,0,0,1-.334.217h-.267a.327.327,0,0,1-.334-.217l-3.019-6.438c-.25-.55-.617-1.584-.617-1.584h-.034s0,1.017-.05,1.584l-.7,8.639a.267.267,0,0,1-.284.267h-.15c-.2,0-.284-.1-.284-.3Z" transform="translate(-99.394 -17.754)" fill="#1a1818"/>
      <path id="Path_10" data-name="Path 10" d="M132.31,18.188a.3.3,0,0,1,.317-.234h.3a.3.3,0,0,1,.317.234L137.413,29.3c.067.2-.017.333-.234.333H137a.306.306,0,0,1-.317-.217l-1.434-3.82h-4.953l-1.418,3.8a.3.3,0,0,1-.317.233h-.183c-.217,0-.3-.133-.234-.333ZM135,24.926l-1.768-4.737c-.183-.5-.434-1.4-.434-1.4h-.034s-.25.9-.434,1.4l-1.784,4.737Z" transform="translate(-115.267 -17.754)" fill="#1a1818"/>
      <path id="Path_11" data-name="Path 11" d="M152.671,24.559,148.9,18.287c-.117-.183-.033-.333.2-.333h.2a.383.383,0,0,1,.333.183l2.652,4.419c.333.567.717,1.318.717,1.318h.033s.367-.751.717-1.318l2.652-4.419a.384.384,0,0,1,.334-.183h.2c.233,0,.317.15.2.333l-3.752,6.271v4.786a.255.255,0,0,1-.284.284h-.15a.255.255,0,0,1-.284-.284Z" transform="translate(-126.722 -17.754)" fill="#1a1818"/>
      <path id="Path_12" data-name="Path 12" d="M172.187,18.238a.255.255,0,0,1,.284-.284h.167a.4.4,0,0,1,.35.183l6.521,8.973c.384.534.951,1.467.951,1.467h.033s-.083-.884-.083-1.467V18.238a.255.255,0,0,1,.284-.284h.15a.255.255,0,0,1,.283.284V29.345a.255.255,0,0,1-.283.284h-.167a.4.4,0,0,1-.35-.183L173.8,20.472c-.383-.534-.951-1.467-.951-1.467h-.033s.083.884.083,1.467v8.873a.255.255,0,0,1-.283.284h-.15a.255.255,0,0,1-.284-.284Z" transform="translate(-139.619 -17.754)" fill="#1a1818"/>
      <path id="Path_13" data-name="Path 13" d="M204.032,17.507a5.832,5.832,0,0,1,5.9,5.954,5.908,5.908,0,1,1-11.808,0A5.832,5.832,0,0,1,204.032,17.507Zm0,11.391a5.194,5.194,0,0,0,5.153-5.437,5.155,5.155,0,1,0-10.307,0A5.194,5.194,0,0,0,204.032,28.9Z" transform="translate(-153.954 -17.507)" fill="#1a1818"/>
      <path id="Path_14" data-name="Path 14" d="M234.522,17.507a5.832,5.832,0,0,1,5.9,5.954,5.908,5.908,0,1,1-11.808,0A5.832,5.832,0,0,1,234.522,17.507Zm0,11.391a5.194,5.194,0,0,0,5.153-5.437,5.155,5.155,0,1,0-10.307,0A5.194,5.194,0,0,0,234.522,28.9Z" transform="translate(-170.802 -17.507)" fill="#1a1818"/>
      <path id="Path_15" data-name="Path 15" d="M259.993,18.621h-4.069a.255.255,0,0,1-.284-.283v-.1a.255.255,0,0,1,.284-.284h8.856a.255.255,0,0,1,.283.284v.1a.255.255,0,0,1-.283.283H260.71V29.345a.256.256,0,0,1-.284.284h-.15a.255.255,0,0,1-.284-.284Z" transform="translate(-185.734 -17.754)" fill="#1a1818"/>
      <path id="Path_16" data-name="Path 16" d="M280.837,18.238a.255.255,0,0,1,.284-.284h.15a.255.255,0,0,1,.284.284v5.2h7.405v-5.2a.255.255,0,0,1,.283-.284h.15a.255.255,0,0,1,.284.284V29.345a.255.255,0,0,1-.284.284h-.15a.255.255,0,0,1-.283-.284V24.108h-7.405v5.237a.255.255,0,0,1-.284.284h-.15a.255.255,0,0,1-.284-.284Z" transform="translate(-199.658 -17.754)" fill="#1a1818"/>
    </g>
  </g>
</svg>
